<?xml version="1.0" standalone="no"?>
<!DOCTYPE svg PUBLIC "-//W3C//DTD SVG 20010904//EN"
 "http://www.w3.org/TR/2001/REC-SVG-20010904/DTD/svg10.dtd">
<svg version="1.0" xmlns="http://www.w3.org/2000/svg"
 width="1051.000000pt" height="1360.000000pt" viewBox="0 0 1051.000000 1360.000000"
 preserveAspectRatio="xMidYMid meet">

<g transform="translate(0.000000,1360.000000) scale(0.100000,-0.100000)"
fill="#000000" stroke="none">
<path d="M4540 12850 c-736 -62 -1366 -458 -1789 -1123 -59 -92 -167 -298
-209 -397 l-19 -45 62 3 c85 5 215 -19 309 -57 88 -35 197 -96 209 -117 4 -8
13 -14 19 -14 7 0 30 -19 52 -42 22 -24 34 -34 26 -23 -8 11 12 -5 43 -35 32
-30 55 -60 53 -67 -3 -7 0 -12 7 -10 7 1 10 -5 9 -13 -2 -8 0 -12 4 -8 9 10
35 -12 28 -23 -3 -5 -1 -9 5 -9 5 0 24 -23 43 -52 18 -28 41 -63 50 -77 9 -14
22 -32 28 -38 11 -13 33 -65 30 -72 -1 -2 3 -7 8 -10 42 -27 173 -430 159
-493 -1 -6 28 -28 64 -47 37 -20 74 -42 82 -49 21 -18 24 -9 32 83 26 308 102
674 190 910 46 126 47 128 57 113 6 -9 7 -6 3 9 -10 37 133 302 155 288 6 -4
10 -3 9 2 -1 4 -1 14 0 20 1 16 130 153 143 153 6 0 4 -7 -3 -17 -13 -15 -12
-15 8 -2 14 8 18 16 11 20 -14 9 34 41 53 36 8 -2 10 -2 6 1 -17 9 34 33 56
27 15 -4 18 -3 9 3 -24 17 77 37 178 36 107 -1 200 -22 298 -66 50 -23 62 -32
51 -40 -10 -7 -7 -7 10 -3 16 5 21 4 17 -4 -5 -7 -1 -8 10 -4 11 4 15 2 11 -4
-4 -6 1 -10 10 -9 10 0 18 -4 18 -11 0 -6 4 -15 9 -20 5 -5 6 -2 1 6 -5 9 -3
12 6 9 8 -3 13 -11 11 -17 -1 -7 2 -10 8 -6 21 13 182 -127 174 -150 -3 -7 -1
-16 5 -20 7 -4 8 1 4 12 -4 11 8 5 31 -17 20 -19 34 -40 31 -48 -2 -7 -1 -11
4 -8 13 8 54 -41 46 -55 -5 -7 -4 -10 3 -6 12 8 85 -90 77 -104 -4 -5 -1 -8 6
-7 15 4 90 -122 84 -140 -3 -8 0 -10 7 -6 8 5 9 2 5 -10 -4 -9 -3 -15 2 -12 5
3 17 -14 28 -39 10 -25 20 -45 23 -45 3 0 13 33 23 73 25 108 69 237 79 231 4
-3 5 2 2 10 -7 18 25 88 37 80 5 -3 6 1 3 9 -6 17 78 143 94 139 7 -1 11 3 10
9 -2 7 16 27 40 45 67 52 143 66 225 42 33 -10 36 -13 21 -20 -15 -6 -13 -7 8
-5 16 3 36 -2 45 -10 16 -13 16 -13 -7 -7 -29 7 -26 2 9 -16 15 -8 21 -8 17
-1 -14 22 10 9 52 -27 40 -37 60 -69 25 -41 -16 13 -17 12 -5 -3 8 -9 20 -14
29 -11 12 5 14 1 8 -15 -4 -14 -2 -22 5 -22 6 0 8 6 4 13 -4 6 2 3 14 -7 14
-12 20 -26 17 -37 -3 -9 -1 -20 4 -24 7 -4 8 1 5 12 -4 11 4 6 20 -12 37 -41
138 -251 175 -360 86 -258 147 -654 140 -906 -2 -66 -1 -119 3 -119 3 0 23 9
45 21 l38 20 3 77 c3 84 41 251 74 322 12 25 22 50 22 55 3 25 18 55 28 55 6
0 8 3 5 7 -7 6 58 134 73 143 11 7 -16 230 -46 378 -61 307 -195 599 -364 800
-34 41 -60 75 -58 76 2 1 32 13 68 26 123 44 208 118 235 208 6 22 6 22 -52
-7 -102 -52 -220 -73 -293 -52 -24 7 -24 8 16 29 58 30 139 122 163 186 23 63
34 158 23 205 l-7 34 -40 -69 c-55 -95 -157 -196 -217 -217 -80 -27 -125 -3
-299 158 -123 114 -170 146 -315 218 -397 198 -939 304 -1374 267z"/>
<path d="M4718 11703 c7 -3 16 -2 19 1 4 3 -2 6 -13 5 -11 0 -14 -3 -6 -6z"/>
<path d="M4788 11693 c6 -2 18 -2 25 0 6 3 1 5 -13 5 -14 0 -19 -2 -12 -5z"/>
<path d="M4858 11683 c7 -3 16 -2 19 1 4 3 -2 6 -13 5 -11 0 -14 -3 -6 -6z"/>
<path d="M4940 11666 c0 -2 7 -7 16 -10 8 -3 12 -2 9 4 -6 10 -25 14 -25 6z"/>
<path d="M4309 11503 c-13 -16 -12 -17 4 -4 16 13 21 21 13 21 -2 0 -10 -8
-17 -17z"/>
<path d="M5911 11383 c-10 -26 -10 -27 4 -9 8 11 15 23 15 28 0 15 -7 8 -19
-19z"/>
<path d="M4146 11265 c-9 -26 -7 -32 5 -12 6 10 9 21 6 23 -2 3 -7 -2 -11 -11z"/>
<path d="M6480 11276 c0 -2 8 -10 18 -17 15 -13 16 -12 3 4 -13 16 -21 21 -21
13z"/>
<path d="M5527 11169 c7 -7 15 -10 18 -7 3 3 -2 9 -12 12 -14 6 -15 5 -6 -5z"/>
<path d="M2064 11078 l-19 -23 23 19 c12 11 22 21 22 23 0 8 -8 2 -26 -19z"/>
<path d="M5590 11071 c0 -5 5 -13 10 -16 6 -3 10 -2 10 4 0 5 -4 13 -10 16 -5
3 -10 2 -10 -4z"/>
<path d="M5771 11054 c0 -11 3 -14 6 -6 3 7 2 16 -1 19 -3 4 -6 -2 -5 -13z"/>
<path d="M1991 10997 c-13 -21 -12 -21 5 -5 10 10 16 20 13 22 -3 3 -11 -5
-18 -17z"/>
<path d="M4041 11004 c0 -11 3 -14 6 -6 3 7 2 16 -1 19 -3 4 -6 -2 -5 -13z"/>
<path d="M5746 10985 c-9 -26 -7 -32 5 -12 6 10 9 21 6 23 -2 3 -7 -2 -11 -11z"/>
<path d="M5661 10944 c0 -11 3 -14 6 -6 3 7 2 16 -1 19 -3 4 -6 -2 -5 -13z"/>
<path d="M4989 10937 c-70 -26 -133 -86 -173 -165 -14 -26 -15 -37 -5 -48 17
-21 22 -19 81 32 96 84 179 104 257 64 36 -18 141 -124 141 -142 0 -4 7 -8 15
-8 37 0 -1 113 -62 180 -25 28 -63 60 -85 71 -51 26 -123 33 -169 16z"/>
<path d="M5741 10934 c0 -11 3 -14 6 -6 3 7 2 16 -1 19 -3 4 -6 -2 -5 -13z"/>
<path d="M4011 10914 c0 -11 3 -14 6 -6 3 7 2 16 -1 19 -3 4 -6 -2 -5 -13z"/>
<path d="M7430 10900 c-8 -5 -10 -10 -5 -10 6 0 17 5 25 10 8 5 11 10 5 10 -5
0 -17 -5 -25 -10z"/>
<path d="M7830 10890 c8 -5 20 -10 25 -10 6 0 3 5 -5 10 -8 5 -19 10 -25 10
-5 0 -3 -5 5 -10z"/>
<path d="M5707 10873 c-11 -11 -8 -20 7 -20 8 0 12 6 9 14 -6 15 -7 15 -16 6z"/>
<path d="M6228 10862 c-54 -22 -103 -93 -132 -191 -33 -111 -6 -141 41 -45 30
61 88 120 129 130 34 9 95 -20 158 -75 77 -66 87 -51 30 45 -41 69 -78 110
-116 130 -28 15 -81 17 -110 6z"/>
<path d="M3981 10804 c0 -11 3 -14 6 -6 3 7 2 16 -1 19 -3 4 -6 -2 -5 -13z"/>
<path d="M6700 10736 c0 -8 4 -17 9 -20 5 -4 7 3 4 14 -6 23 -13 26 -13 6z"/>
<path d="M2670 10639 c-65 -9 -164 -44 -184 -65 -8 -8 -18 -14 -23 -14 -16 -1
-51 -46 -84 -110 -31 -62 -33 -71 -36 -187 l-3 -121 33 -26 c17 -15 38 -31 45
-37 7 -6 38 -22 68 -36 91 -42 148 -17 222 96 55 83 85 95 239 92 68 -1 141 3
161 8 83 23 116 124 73 221 -10 23 -20 37 -22 31 -3 -7 -21 4 -41 23 -57 54
-168 105 -262 122 -88 15 -104 16 -186 3z"/>
<path d="M1832 10615 c0 -16 2 -22 5 -12 2 9 2 23 0 30 -3 6 -5 -1 -5 -18z"/>
<path d="M3921 10564 c0 -11 3 -14 6 -6 3 7 2 16 -1 19 -3 4 -6 -2 -5 -13z"/>
<path d="M1833 10515 c0 -22 2 -30 4 -17 2 12 2 30 0 40 -3 9 -5 -1 -4 -23z"/>
<path d="M3911 10514 c0 -11 3 -14 6 -6 3 7 2 16 -1 19 -3 4 -6 -2 -5 -13z"/>
<path d="M3901 10444 c0 -11 3 -14 6 -6 3 7 2 16 -1 19 -3 4 -6 -2 -5 -13z"/>
<path d="M3891 10384 c0 -11 3 -14 6 -6 3 7 2 16 -1 19 -3 4 -6 -2 -5 -13z"/>
<path d="M7396 10340 c-57 -74 -85 -152 -86 -231 0 -51 4 -70 18 -82 25 -23
31 -22 95 12 97 51 131 26 140 -100 8 -113 46 -179 102 -179 39 0 89 36 80 57
-3 11 -1 13 10 10 8 -4 17 -1 21 5 5 7 2 8 -6 3 -10 -6 -11 -1 -6 21 4 16 9
67 12 114 9 134 -29 265 -100 347 -50 56 -90 73 -173 73 l-69 0 -38 -50z"/>
<path d="M3882 10330 c0 -19 2 -27 5 -17 2 9 2 25 0 35 -3 9 -5 1 -5 -18z"/>
<path d="M8152 10315 c0 -16 2 -22 5 -12 2 9 2 23 0 30 -3 6 -5 -1 -5 -18z"/>
<path d="M6782 10265 c0 -16 2 -22 5 -12 2 9 2 23 0 30 -3 6 -5 -1 -5 -18z"/>
<path d="M1896 10267 c3 -10 9 -15 12 -12 3 3 0 11 -7 18 -10 9 -11 8 -5 -6z"/>
<path d="M3871 10244 c0 -11 3 -14 6 -6 3 7 2 16 -1 19 -3 4 -6 -2 -5 -13z"/>
<path d="M3335 10160 c3 -5 12 -10 20 -10 8 0 17 5 20 10 4 6 -5 10 -20 10
-15 0 -24 -4 -20 -10z"/>
<path d="M6792 10140 c0 -14 2 -19 5 -12 2 6 2 18 0 25 -3 6 -5 1 -5 -13z"/>
<path d="M3180 10146 c0 -2 7 -7 16 -10 8 -3 12 -2 9 4 -6 10 -25 14 -25 6z"/>
<path d="M3148 10133 c7 -3 16 -2 19 1 4 3 -2 6 -13 5 -11 0 -14 -3 -6 -6z"/>
<path d="M4977 10059 c-46 -24 -119 -120 -145 -192 -53 -140 -54 -287 -5 -386
50 -101 128 -127 214 -73 116 74 183 223 183 407 0 83 -4 109 -23 153 -34 75
-79 112 -139 112 -27 -1 -63 -9 -85 -21z m31 -57 c19 -13 26 -75 12 -116 -11
-33 -51 -76 -71 -76 -24 0 -49 42 -49 81 0 83 58 142 108 111z m62 -514 c0
-31 -19 -58 -40 -58 -16 0 -20 7 -20 34 0 42 25 72 46 55 8 -6 14 -20 14 -31z"/>
<path d="M2985 10060 c-3 -5 -1 -10 4 -10 6 0 11 5 11 10 0 6 -2 10 -4 10 -3
0 -8 -4 -11 -10z"/>
<path d="M6792 10010 c0 -19 2 -27 5 -17 2 9 2 25 0 35 -3 9 -5 1 -5 -18z"/>
<path d="M2115 9960 c27 -27 51 -50 54 -50 3 0 -17 23 -44 50 -27 28 -51 50
-54 50 -3 0 17 -22 44 -50z"/>
<path d="M7048 9973 c7 -3 16 -2 19 1 4 3 -2 6 -13 5 -11 0 -14 -3 -6 -6z"/>
<path d="M6270 9952 c-42 -21 -75 -68 -95 -136 -64 -215 14 -486 140 -486 19
0 35 -2 35 -4 0 -2 -11 -23 -24 -47 -38 -69 -42 -101 -7 -46 17 26 31 52 31
58 0 6 5 7 12 3 8 -5 9 -2 5 10 -4 10 -3 15 3 11 5 -3 29 12 52 35 24 23 75
57 113 75 55 27 65 35 45 36 -46 4 -75 -2 -109 -22 -18 -11 -35 -19 -36 -17
-2 2 6 37 17 78 16 60 18 94 14 170 -8 139 -37 220 -95 266 -39 32 -63 36
-101 16z m9 -103 c15 -44 14 -85 -4 -119 -22 -42 -52 -40 -71 5 -18 44 -18 69
2 111 22 46 57 47 73 3z m120 -391 c10 -28 -1 -63 -20 -63 -15 0 -24 46 -15
71 8 21 26 17 35 -8z"/>
<path d="M6958 9958 c5 -5 16 -8 23 -6 8 3 3 7 -10 11 -17 4 -21 3 -13 -5z"/>
<path d="M8076 9953 c-6 -14 -5 -15 5 -6 7 7 10 15 7 18 -3 3 -9 -2 -12 -12z"/>
<path d="M2791 9926 c-7 -8 -8 -17 -3 -20 6 -3 15 1 21 8 7 8 8 17 3 20 -6 3
-15 -1 -21 -8z"/>
<path d="M7260 9915 c0 -8 29 -12 39 -5 9 5 4 8 -13 8 -14 0 -26 -2 -26 -3z"/>
<path d="M7325 9890 c-3 -5 -1 -10 4 -10 6 0 11 5 11 10 0 6 -2 10 -4 10 -3 0
-8 -4 -11 -10z"/>
<path d="M7350 9881 c0 -10 19 -25 25 -20 1 2 -3 10 -11 17 -8 7 -14 8 -14 3z"/>
<path d="M2220 9867 c0 -2 14 -16 30 -30 17 -15 30 -23 30 -19 0 5 -13 18 -30
30 -16 13 -30 21 -30 19z"/>
<path d="M2722 9848 c2 -7 -2 -12 -9 -11 -7 2 -10 -4 -6 -13 3 -8 6 -14 7 -12
1 2 7 10 14 20 9 11 10 18 2 23 -6 4 -9 1 -8 -7z"/>
<path d="M2282 9733 c46 -349 179 -677 387 -948 63 -82 220 -244 311 -320 125
-103 330 -239 330 -218 0 6 -12 15 -26 22 -15 6 -46 28 -70 48 -38 30 -42 38
-32 52 11 14 11 14 -4 3 -14 -11 -18 -10 -30 6 -7 10 -21 21 -30 25 -10 3 -18
11 -18 17 0 6 6 8 13 4 8 -5 8 -2 -2 9 -15 19 -26 23 -15 6 22 -36 -27 8 -101
91 -55 60 -83 100 -80 109 3 9 3 12 -1 8 -4 -4 -16 0 -26 10 -19 17 -25 39 -8
28 6 -3 7 1 3 10 -4 12 -8 13 -13 5 -18 -30 -180 262 -234 420 -38 116 -61
295 -49 389 9 70 9 78 -10 98 -11 12 -24 20 -29 17 -4 -3 -11 1 -14 9 -2 7
-10 14 -17 14 -13 0 -131 78 -187 124 -52 44 -58 39 -48 -38z"/>
<path d="M7972 9730 c-18 -29 -15 -38 4 -12 9 13 14 25 12 27 -2 2 -9 -5 -16
-15z"/>
<path d="M7533 9685 c0 -8 4 -12 9 -9 5 3 6 10 3 15 -9 13 -12 11 -12 -6z"/>
<path d="M2611 9634 c0 -11 3 -14 6 -6 3 7 2 16 -1 19 -3 4 -6 -2 -5 -13z"/>
<path d="M4502 9639 c-41 -12 -34 -24 16 -33 51 -8 129 -50 165 -89 32 -35 91
-154 102 -205 4 -18 9 -32 11 -29 9 8 -28 141 -55 201 -36 78 -71 119 -124
145 -47 23 -65 24 -115 10z"/>
<path d="M2606 9597 c3 -10 9 -15 12 -12 3 3 0 11 -7 18 -10 9 -11 8 -5 -6z"/>
<path d="M7580 9578 c0 -9 5 -20 10 -23 13 -8 13 5 0 25 -8 13 -10 13 -10 -2z"/>
<path d="M7590 9519 c0 -5 5 -7 10 -4 6 3 10 8 10 11 0 2 -4 4 -10 4 -5 0 -10
-5 -10 -11z"/>
<path d="M1881 9340 c-70 -97 -46 -258 54 -369 51 -56 63 -52 18 7 -100 130
-123 295 -52 371 12 12 19 25 16 28 -3 2 -19 -14 -36 -37z"/>
<path d="M2602 9350 c0 -19 2 -27 5 -17 2 9 2 25 0 35 -3 9 -5 1 -5 -18z"/>
<path d="M7633 9275 c0 -27 2 -38 4 -22 2 15 2 37 0 50 -2 12 -4 0 -4 -28z"/>
<path d="M2082 9235 c0 -16 2 -22 5 -12 2 9 2 23 0 30 -3 6 -5 -1 -5 -18z"/>
<path d="M2091 9173 c-3 -133 98 -320 207 -383 l37 -21 -27 25 c-85 81 -167
222 -198 340 -14 51 -19 62 -19 39z"/>
<path d="M4589 9162 c48 -70 64 -131 59 -231 -6 -115 -42 -203 -115 -281 -59
-64 -114 -95 -218 -121 l-70 -18 70 0 c154 -2 275 65 321 176 8 18 18 33 22
33 4 0 22 -28 39 -63 85 -164 252 -327 423 -413 74 -37 194 -72 290 -85 235
-32 645 44 884 164 81 40 137 78 130 88 -3 5 1 6 8 4 19 -7 102 65 90 77 -12
12 -124 -71 -115 -85 3 -6 1 -7 -5 -3 -6 3 -33 -7 -59 -23 -115 -71 -372 -152
-574 -182 -106 -15 -354 -7 -433 15 -158 44 -316 136 -433 252 -77 77 -161
196 -189 269 -9 25 -21 45 -26 45 -9 0 -7 19 8 107 7 36 -15 152 -35 192 -11
20 -38 56 -60 81 l-42 45 30 -43z"/>
<path d="M2631 9174 c0 -11 3 -14 6 -6 3 7 2 16 -1 19 -3 4 -6 -2 -5 -13z"/>
<path d="M7959 9130 c69 -95 79 -264 26 -430 -53 -166 -109 -248 -224 -327
-73 -50 -57 -50 28 0 159 94 252 262 268 482 9 128 -19 218 -90 288 -39 38
-42 34 -8 -13z"/>
<path d="M8188 9092 c47 -67 67 -134 66 -232 -1 -120 -41 -230 -135 -369 -66
-98 -68 -103 -29 -66 133 128 211 312 196 463 -8 73 -58 182 -103 223 -23 22
-23 20 5 -19z"/>
<path d="M7601 9074 c0 -11 3 -14 6 -6 3 7 2 16 -1 19 -3 4 -6 -2 -5 -13z"/>
<path d="M7596 9037 c3 -10 9 -15 12 -12 3 3 0 11 -7 18 -10 9 -11 8 -5 -6z"/>
<path d="M5391 9019 c-45 -27 -74 -92 -66 -145 6 -45 35 -68 58 -45 8 8 7 11
-5 11 -9 0 -19 9 -23 20 -7 22 13 99 31 117 7 7 14 18 16 24 2 6 19 14 38 18
34 7 35 7 8 13 -17 3 -39 -2 -57 -13z"/>
<path d="M6638 8990 c-33 -25 -63 -74 -83 -131 -13 -39 -13 -42 0 -24 100 134
127 156 169 137 16 -7 29 -25 37 -52 24 -80 -36 -198 -172 -339 -52 -55 -67
-77 -59 -85 8 -8 15 -6 25 8 8 10 27 33 44 51 156 171 223 344 165 422 -28 37
-88 44 -126 13z"/>
<path d="M5892 8955 c-39 -33 -75 -117 -67 -156 7 -30 30 -48 43 -34 4 4 1 10
-5 12 -22 8 -14 56 17 110 31 55 62 79 83 67 8 -5 7 -2 -2 9 -18 23 -34 21
-69 -8z"/>
<path d="M7474 8700 c0 -13 4 -16 10 -10 7 7 7 13 0 20 -6 6 -10 3 -10 -10z"/>
<path d="M7427 8623 c3 -7 6 -13 8 -13 2 0 5 6 8 13 3 8 -1 14 -8 14 -7 0 -11
-6 -8 -14z"/>
<path d="M1565 8590 c-403 -47 -702 -281 -824 -645 -107 -319 -71 -677 93
-924 69 -104 186 -209 288 -258 117 -57 183 -73 328 -80 149 -6 282 13 368 54
72 34 178 139 225 224 110 199 128 469 43 637 -32 62 -125 149 -201 186 -84
41 -183 47 -240 14 -140 -82 -94 -230 90 -283 76 -23 90 -51 90 -190 0 -94 -3
-116 -22 -150 -44 -82 -114 -135 -208 -160 -266 -69 -524 96 -617 395 -33 108
-33 302 0 410 70 223 217 376 422 438 93 28 248 46 342 39 314 -25 593 -221
711 -502 67 -160 62 -358 -14 -594 -64 -195 -154 -369 -355 -688 -59 -92 -120
-190 -137 -218 -17 -27 -123 -187 -235 -355 -229 -342 -272 -414 -330 -550
-92 -216 -126 -387 -125 -630 0 -154 3 -189 27 -294 81 -352 257 -635 542
-873 323 -269 694 -438 1134 -520 136 -25 508 -25 635 0 273 54 464 159 581
319 l36 49 32 -21 c17 -12 85 -48 151 -80 203 -101 369 -137 580 -127 235 11
456 97 686 268 l67 49 87 -15 c115 -20 138 -19 160 5 10 12 25 18 32 15 8 -2
12 -1 9 4 -9 14 63 64 82 56 9 -3 13 -3 9 1 -10 11 31 36 46 28 6 -4 9 -4 5 1
-4 4 14 19 39 33 44 23 53 24 133 17 120 -11 157 -8 228 17 l63 22 53 -26 c29
-15 79 -43 111 -63 l58 -38 -29 -15 c-53 -26 -92 -72 -63 -72 20 0 139 -59
139 -69 0 -6 -6 -14 -14 -18 -7 -4 -30 -23 -51 -41 -28 -25 -34 -36 -26 -46
17 -20 138 -56 198 -58 29 -2 52 -5 50 -8 -15 -25 -68 -147 -73 -165 -9 -37
55 -43 143 -13 l71 24 6 -67 c6 -72 34 -169 48 -169 4 0 8 7 8 16 0 28 57 130
122 219 34 47 65 85 69 85 3 0 23 -31 43 -70 38 -72 96 -290 96 -362 0 -27 4
-38 15 -38 8 0 15 5 15 12 0 6 11 35 25 63 27 59 44 124 45 173 0 17 5 32 10
32 6 0 10 -7 10 -15 0 -21 86 -108 102 -103 20 7 58 79 58 112 l0 30 33 -31
c33 -31 68 -53 86 -53 5 0 14 22 20 50 10 44 9 69 -5 136 -4 21 -3 21 69 -6
72 -28 172 -51 181 -42 3 2 -17 48 -44 101 -28 52 -50 99 -50 102 0 4 23 -1
50 -12 28 -10 73 -19 100 -19 39 0 53 -4 62 -20 7 -11 17 -20 22 -20 5 0 1 8
-8 19 -16 18 -15 19 29 30 55 14 57 27 7 40 -49 14 -115 57 -175 115 -48 46
-53 66 -17 66 36 0 258 78 352 124 140 68 243 140 340 236 72 73 94 103 132
181 53 110 71 182 61 247 -42 281 -530 563 -1081 626 -139 16 -400 20 -439 8
-17 -6 -21 -17 -23 -67 -6 -110 -61 -293 -85 -278 -6 3 -7 1 -3 -5 12 -20 -48
-107 -67 -95 -6 4 -7 1 -2 -7 5 -8 -4 -22 -26 -40 -39 -34 -39 -34 -154 55
-44 34 -125 92 -180 128 -256 167 -420 223 -692 234 l-141 6 -62 -42 c-72 -48
-97 -52 -106 -16 -8 31 -21 31 -124 5 -159 -41 -296 -96 -451 -183 l-65 -37
-27 55 -26 54 -56 -34 c-55 -32 -128 -55 -181 -55 -38 0 -64 -16 -111 -68 -39
-44 -45 -47 -90 -47 -64 0 -163 45 -163 74 0 12 4 21 9 21 5 0 23 24 40 53
l30 52 -29 85 c-29 85 -35 125 -24 168 9 30 22 28 92 -18 34 -21 64 -35 66
-31 10 15 -49 115 -102 172 -53 57 -63 75 -38 66 18 -7 134 17 148 31 14 14
-52 48 -222 114 -24 9 -23 9 19 34 70 40 162 127 148 141 -3 3 -43 11 -88 17
l-82 12 29 34 c39 46 104 136 104 144 0 4 -21 4 -47 0 -41 -6 -45 -5 -40 10 4
10 7 27 7 38 0 14 5 18 15 14 17 -6 20 5 6 20 -16 15 119 314 141 314 5 0 7 4
4 9 -10 15 52 71 72 65 13 -4 14 -3 4 4 -10 7 -7 13 15 27 15 10 33 18 40 18
7 0 10 4 7 8 -2 4 6 15 18 23 22 16 22 16 1 16 -30 0 -86 -25 -122 -56 -46
-38 -116 -141 -156 -227 -43 -93 -100 -290 -116 -400 -7 -45 -15 -86 -19 -90
-13 -15 -69 97 -91 179 -30 112 -31 377 -1 514 39 185 111 333 220 451 l63 68
-43 29 c-87 58 -184 81 -273 62 -29 -6 -59 -18 -65 -26 -16 -18 -46 -18 -54 1
-7 20 17 96 47 148 60 101 188 181 323 200 144 21 336 -28 469 -119 75 -51 66
-61 95 116 34 216 49 245 153 296 38 18 75 39 83 45 7 6 25 42 40 80 22 58 34
76 73 104 59 44 98 52 144 30 66 -31 136 -164 174 -329 25 -109 22 -361 -6
-496 -22 -111 -26 -143 -13 -124 21 33 206 23 324 -17 89 -30 169 -69 163 -80
-4 -5 0 -6 8 -3 18 6 216 -111 217 -129 0 -5 -5 -5 -12 -1 -7 4 -8 3 -4 -4 4
-6 13 -9 21 -6 11 5 82 -44 192 -133 8 -6 12 -16 9 -21 -3 -5 4 -18 17 -28
l22 -19 -19 23 c-32 37 -3 25 38 -17 21 -21 34 -41 29 -43 -4 -3 -3 -4 3 -2
12 3 54 -36 54 -50 0 -5 -7 -2 -17 5 -15 13 -15 12 -2 -8 7 -12 16 -18 19 -12
4 5 14 1 24 -10 10 -11 15 -25 10 -32 -4 -7 -3 -10 3 -6 15 9 57 -39 48 -54
-5 -8 -4 -10 3 -5 6 4 47 0 89 -9 70 -15 100 -15 283 -4 241 14 297 8 408 -47
41 -20 76 -33 80 -30 11 12 -29 114 -64 160 -26 34 -31 46 -19 46 27 0 125 51
125 65 0 16 -49 59 -93 81 l-30 16 34 26 c59 45 139 131 139 150 0 16 -13 21
-75 32 -41 7 -75 15 -75 17 0 2 14 27 30 57 17 29 31 71 33 92 2 43 5 42 -77
30 l-46 -7 20 51 c21 53 26 105 12 114 -5 3 -63 -22 -129 -54 -143 -71 -326
-134 -442 -150 -115 -17 -305 -8 -399 19 -219 63 -387 207 -553 472 -140 225
-203 318 -258 385 -63 76 -164 158 -223 182 -21 8 -35 19 -32 23 7 12 -9 12
-21 0 -6 -4 -77 -17 -160 -27 -211 -27 -737 -27 -940 -1 -277 36 -529 93 -740
167 -50 18 -97 34 -105 36 -23 7 -124 -100 -195 -206 -149 -223 -261 -525
-324 -875 -69 -386 -72 -679 -11 -1031 43 -249 69 -324 152 -447 l39 -57 -30
-93 c-75 -234 -101 -520 -67 -726 45 -267 193 -543 415 -774 l46 -48 -34 -65
c-66 -128 -196 -226 -356 -270 -94 -26 -372 -30 -532 -9 -439 59 -834 237
-1102 498 -183 178 -314 424 -372 700 -29 134 -31 388 -5 522 59 311 151 471
670 1173 382 518 553 884 586 1255 10 118 -2 261 -31 366 -101 369 -461 690
-858 765 -99 19 -277 27 -366 16z"/>
<path d="M7390 8581 c0 -6 4 -13 10 -16 6 -3 7 1 4 9 -7 18 -14 21 -14 7z"/>
<path d="M7205 8340 c3 -5 8 -10 11 -10 2 0 4 5 4 10 0 6 -5 10 -11 10 -5 0
-7 -4 -4 -10z"/>
<path d="M7166 8303 c-6 -14 -5 -15 5 -6 7 7 10 15 7 18 -3 3 -9 -2 -12 -12z"/>
<path d="M3345 8231 c-3 -5 -2 -12 3 -15 5 -3 9 1 9 9 0 17 -3 19 -12 6z"/>
<path d="M7075 8231 c-3 -5 -2 -12 3 -15 5 -3 9 1 9 9 0 17 -3 19 -12 6z"/>
<path d="M7026 8185 c-11 -8 -15 -15 -9 -15 6 0 16 7 23 15 16 19 11 19 -14 0z"/>
<path d="M6920 8105 c-11 -13 -10 -14 4 -9 9 3 16 10 16 15 0 13 -6 11 -20 -6z"/>
<path d="M3540 8100 c8 -5 20 -10 25 -10 6 0 3 5 -5 10 -8 5 -19 10 -25 10 -5
0 -3 -5 5 -10z"/>
<path d="M3626 8052 c-2 -4 4 -8 14 -8 10 0 16 4 14 8 -3 4 -9 8 -14 8 -5 0
-11 -4 -14 -8z"/>
<path d="M3688 8023 c7 -3 16 -2 19 1 4 3 -2 6 -13 5 -11 0 -14 -3 -6 -6z"/>
<path d="M6770 8019 c0 -5 5 -7 10 -4 6 3 10 8 10 11 0 2 -4 4 -10 4 -5 0 -10
-5 -10 -11z"/>
<path d="M3758 7979 c18 -12 36 -19 39 -15 4 3 1 6 -6 6 -7 0 -9 4 -6 10 3 5
0 7 -8 4 -8 -3 -18 -1 -22 5 -3 6 -12 11 -18 11 -7 0 3 -10 21 -21z"/>
<path d="M3810 7956 c0 -2 7 -7 16 -10 8 -3 12 -2 9 4 -6 10 -25 14 -25 6z"/>
<path d="M6605 7940 c-8 -13 5 -13 25 0 13 8 13 10 -2 10 -9 0 -20 -4 -23 -10z"/>
<path d="M6565 7910 c-3 -6 1 -7 9 -4 18 7 21 14 7 14 -6 0 -13 -4 -16 -10z"/>
<path d="M4198 7823 c7 -3 16 -2 19 1 4 3 -2 6 -13 5 -11 0 -14 -3 -6 -6z"/>
<path d="M6275 7810 c-13 -5 -14 -9 -5 -9 8 0 24 4 35 9 13 5 14 9 5 9 -8 0
-24 -4 -35 -9z"/>
<path d="M6190 7790 c-8 -5 -10 -10 -5 -10 6 0 17 5 25 10 8 5 11 10 5 10 -5
0 -17 -5 -25 -10z"/>
<path d="M6100 7770 c0 -5 4 -10 9 -10 6 0 13 5 16 10 3 6 -1 10 -9 10 -9 0
-16 -4 -16 -10z"/>
<path d="M4538 7743 c7 -3 16 -2 19 1 4 3 -2 6 -13 5 -11 0 -14 -3 -6 -6z"/>
<path d="M5937 7737 c-4 -10 2 -13 20 -9 18 3 21 7 11 13 -18 12 -25 11 -31
-4z"/>
<path d="M5998 7743 c7 -3 16 -2 19 1 4 3 -2 6 -13 5 -11 0 -14 -3 -6 -6z"/>
<path d="M4608 7733 c7 -3 16 -2 19 1 4 3 -2 6 -13 5 -11 0 -14 -3 -6 -6z"/>
<path d="M5563 7693 c9 -2 25 -2 35 0 9 3 1 5 -18 5 -19 0 -27 -2 -17 -5z"/>
<path d="M5338 7683 c7 -3 16 -2 19 1 4 3 -2 6 -13 5 -11 0 -14 -3 -6 -6z"/>
<path d="M9148 7163 c7 -3 16 -2 19 1 4 3 -2 6 -13 5 -11 0 -14 -3 -6 -6z"/>
<path d="M9255 7157 c20 -14 65 -28 65 -21 0 4 -69 34 -78 34 -4 0 2 -6 13
-13z"/>
<path d="M9325 7120 c-3 -5 -1 -10 4 -10 6 0 11 5 11 10 0 6 -2 10 -4 10 -3 0
-8 -4 -11 -10z"/>
<path d="M9376 7067 c3 -10 9 -15 12 -12 3 3 0 11 -7 18 -10 9 -11 8 -5 -6z"/>
<path d="M8215 7024 c-22 -13 -33 -24 -25 -24 8 0 29 11 45 25 37 30 32 30
-20 -1z"/>
<path d="M8248 6973 c6 -2 18 -2 25 0 6 3 1 5 -13 5 -14 0 -19 -2 -12 -5z"/>
<path d="M8328 6973 c7 -3 16 -2 19 1 4 3 -2 6 -13 5 -11 0 -14 -3 -6 -6z"/>
<path d="M9421 6944 c0 -11 3 -14 6 -6 3 7 2 16 -1 19 -3 4 -6 -2 -5 -13z"/>
<path d="M8971 6911 c-1 -24 2 -32 9 -25 7 7 7 19 1 35 -9 23 -10 22 -10 -10z"/>
<path d="M8010 6869 c0 -5 5 -7 10 -4 6 3 10 8 10 11 0 2 -4 4 -10 4 -5 0 -10
-5 -10 -11z"/>
<path d="M7984 6853 c-3 -10 -10 -26 -15 -35 -14 -27 -11 -35 4 -13 14 21 28
65 21 65 -3 0 -7 -8 -10 -17z"/>
<path d="M8971 6834 c0 -11 3 -14 6 -6 3 7 2 16 -1 19 -3 4 -6 -2 -5 -13z"/>
<path d="M9414 6825 c-3 -8 -4 -20 -2 -27 3 -7 7 -1 10 15 6 29 1 36 -8 12z"/>
<path d="M9405 6760 c-3 -5 -1 -10 4 -10 6 0 11 5 11 10 0 6 -2 10 -4 10 -3 0
-8 -4 -11 -10z"/>
<path d="M8900 6740 c-9 -6 -10 -10 -3 -10 6 0 15 5 18 10 8 12 4 12 -15 0z"/>
<path d="M8996 6705 c-9 -26 -7 -32 5 -12 6 10 9 21 6 23 -2 3 -7 -2 -11 -11z"/>
<path d="M8623 6703 c9 -2 25 -2 35 0 9 3 1 5 -18 5 -19 0 -27 -2 -17 -5z"/>
<path d="M9365 6701 c-3 -6 -1 -11 4 -11 6 0 11 -7 11 -15 0 -8 5 -15 10 -15
7 0 7 8 -1 23 -16 30 -16 30 -24 18z"/>
<path d="M6070 6660 c-9 -6 -10 -10 -3 -10 6 0 15 5 18 10 8 12 4 12 -15 0z"/>
<path d="M9158 6593 c7 -3 16 -2 19 1 4 3 -2 6 -13 5 -11 0 -14 -3 -6 -6z"/>
<path d="M9238 6593 c7 -3 16 -2 19 1 4 3 -2 6 -13 5 -11 0 -14 -3 -6 -6z"/>
<path d="M9370 6472 c0 -12 3 -12 15 -2 8 7 15 13 15 15 0 1 -7 2 -15 2 -8 0
-15 -7 -15 -15z"/>
<path d="M6640 6470 c8 -5 20 -10 25 -10 6 0 3 5 -5 10 -8 5 -19 10 -25 10 -5
0 -3 -5 5 -10z"/>
<path d="M9010 6473 c0 -6 8 -17 18 -24 16 -13 16 -13 2 6 -8 11 -16 22 -17
24 -2 2 -3 0 -3 -6z"/>
<path d="M9325 6421 c-3 -5 -1 -12 5 -16 5 -3 10 1 10 9 0 18 -6 21 -15 7z"/>
<path d="M8534 6369 c-1 -20 2 -26 7 -17 11 16 12 48 2 48 -5 0 -8 -14 -9 -31z"/>
<path d="M9118 6383 c7 -3 16 -2 19 1 4 3 -2 6 -13 5 -11 0 -14 -3 -6 -6z"/>
<path d="M9228 6363 c7 -3 16 -2 19 1 4 3 -2 6 -13 5 -11 0 -14 -3 -6 -6z"/>
<path d="M6860 6316 c0 -2 8 -10 18 -17 15 -13 16 -12 3 4 -13 16 -21 21 -21
13z"/>
<path d="M8506 6304 c-5 -14 -4 -15 9 -4 17 14 19 20 6 20 -5 0 -12 -7 -15
-16z"/>
<path d="M8980 6250 c0 -5 5 -10 11 -10 5 0 7 5 4 10 -3 6 -8 10 -11 10 -2 0
-4 -4 -4 -10z"/>
<path d="M8336 6174 c-5 -14 -4 -15 9 -4 17 14 19 20 6 20 -5 0 -12 -7 -15
-16z"/>
<path d="M9071 6176 c2 -2 20 -6 39 -10 25 -4 31 -3 20 4 -14 9 -69 15 -59 6z"/>
<path d="M5140 6159 c0 -5 5 -7 10 -4 6 3 10 8 10 11 0 2 -4 4 -10 4 -5 0 -10
-5 -10 -11z"/>
<path d="M5125 6130 c-3 -5 -1 -10 4 -10 6 0 11 5 11 10 0 6 -2 10 -4 10 -3 0
-8 -4 -11 -10z"/>
<path d="M5030 6119 c0 -5 5 -7 10 -4 6 3 10 8 10 11 0 2 -4 4 -10 4 -5 0 -10
-5 -10 -11z"/>
<path d="M5106 6083 c-6 -14 -5 -15 5 -6 7 7 10 15 7 18 -3 3 -9 -2 -12 -12z"/>
<path d="M8970 6085 c0 -5 5 -17 10 -25 5 -8 10 -10 10 -5 0 6 -5 17 -10 25
-5 8 -10 11 -10 5z"/>
<path d="M5135 6030 c17 -11 35 -20 40 -20 6 0 -5 9 -23 20 -42 26 -56 26 -17
0z"/>
<path d="M9130 6020 c-9 -6 -10 -10 -3 -10 6 0 15 5 18 10 8 12 4 12 -15 0z"/>
<path d="M8290 5990 c-6 -11 -8 -20 -6 -20 3 0 10 9 16 20 6 11 8 20 6 20 -3
0 -10 -9 -16 -20z"/>
<path d="M5216 5976 c10 -8 21 -12 24 -10 5 6 -21 24 -34 24 -6 0 -1 -6 10
-14z"/>
<path d="M5398 5883 c7 -3 16 -2 19 1 4 3 -2 6 -13 5 -11 0 -14 -3 -6 -6z"/>
<path d="M5468 5863 c6 -2 18 -2 25 0 6 3 1 5 -13 5 -14 0 -19 -2 -12 -5z"/>
<path d="M4846 5845 c-9 -26 -7 -32 5 -12 6 10 9 21 6 23 -2 3 -7 -2 -11 -11z"/>
<path d="M7278 5821 c22 -35 27 -40 17 -16 -4 11 -8 25 -8 31 0 6 -6 11 -13
11 -9 0 -8 -7 4 -26z"/>
<path d="M5846 5644 c-11 -8 -16 -14 -10 -14 13 0 39 18 34 24 -3 2 -14 -2
-24 -10z"/>
<path d="M5792 5626 c7 -8 15 -12 17 -11 5 6 -10 25 -20 25 -5 0 -4 -6 3 -14z"/>
<path d="M7396 5615 c-9 -26 -7 -32 5 -12 6 10 9 21 6 23 -2 3 -7 -2 -11 -11z"/>
<path d="M5726 5601 c-3 -4 -20 -11 -37 -15 -18 -3 -30 -8 -28 -11 8 -8 79 15
79 25 0 12 -7 13 -14 1z"/>
<path d="M7415 5559 c-4 -6 -5 -12 -2 -15 2 -3 7 2 10 11 7 17 1 20 -8 4z"/>
<path d="M8990 5343 c-20 -18 -32 -39 -33 -58 -2 -28 0 -30 40 -33 69 -5 121
39 107 92 -5 22 -12 26 -45 26 -28 0 -47 -7 -69 -27z"/>
<path d="M5972 5330 c0 -14 2 -19 5 -12 2 6 2 18 0 25 -3 6 -5 1 -5 -13z"/>
<path d="M5678 5323 c7 -3 16 -2 19 1 4 3 -2 6 -13 5 -11 0 -14 -3 -6 -6z"/>
<path d="M5880 5199 c0 -5 5 -7 10 -4 6 3 10 8 10 11 0 2 -4 4 -10 4 -5 0 -10
-5 -10 -11z"/>
<path d="M7527 5189 c4 -13 8 -18 11 -10 2 7 -1 18 -6 23 -8 8 -9 4 -5 -13z"/>
<path d="M5735 5145 c-16 -8 -23 -14 -14 -15 8 0 24 7 35 15 23 18 18 18 -21
0z"/>
<path d="M7541 5134 c0 -11 3 -14 6 -6 3 7 2 16 -1 19 -3 4 -6 -2 -5 -13z"/>
<path d="M5860 5115 c-7 -9 -10 -18 -7 -21 3 -3 10 4 17 15 13 25 8 27 -10 6z"/>
<path d="M5755 4990 c-3 -5 -1 -10 4 -10 6 0 11 5 11 10 0 6 -2 10 -4 10 -3 0
-8 -4 -11 -10z"/>
<path d="M7561 4944 c0 -11 3 -14 6 -6 3 7 2 16 -1 19 -3 4 -6 -2 -5 -13z"/>
<path d="M5690 4940 c-8 -5 -10 -10 -5 -10 6 0 17 5 25 10 8 5 11 10 5 10 -5
0 -17 -5 -25 -10z"/>
<path d="M5517 4879 c7 -7 15 -10 18 -7 3 3 -2 9 -12 12 -14 6 -15 5 -6 -5z"/>
<path d="M5410 4860 c-12 -8 -11 -10 8 -10 12 0 22 5 22 10 0 13 -11 13 -30 0z"/>
<path d="M5128 4843 c7 -3 16 -2 19 1 4 3 -2 6 -13 5 -11 0 -14 -3 -6 -6z"/>
<path d="M7531 4764 c0 -11 3 -14 6 -6 3 7 2 16 -1 19 -3 4 -6 -2 -5 -13z"/>
<path d="M7501 4634 c0 -11 3 -14 6 -6 3 7 2 16 -1 19 -3 4 -6 -2 -5 -13z"/>
<path d="M6328 3663 c7 -3 16 -2 19 1 4 3 -2 6 -13 5 -11 0 -14 -3 -6 -6z"/>
<path d="M6528 3663 c7 -3 16 -2 19 1 4 3 -2 6 -13 5 -11 0 -14 -3 -6 -6z"/>
<path d="M5929 3464 c-23 -25 -23 -26 -2 -13 13 7 25 19 27 26 8 19 2 16 -25
-13z"/>
<path d="M5870 3381 c0 -6 4 -13 10 -16 6 -3 7 1 4 9 -7 18 -14 21 -14 7z"/>
<path d="M5876 3177 c3 -10 9 -15 12 -12 3 3 0 11 -7 18 -10 9 -11 8 -5 -6z"/>
<path d="M5940 3093 c0 -6 8 -17 18 -24 16 -13 16 -13 2 6 -8 11 -16 22 -17
24 -2 2 -3 0 -3 -6z"/>
<path d="M8634 3038 c-4 -6 -3 -8 4 -4 6 3 17 -1 25 -9 17 -17 31 -20 22 -5
-12 19 -43 31 -51 18z"/>
<path d="M9760 2970 c0 -5 7 -7 15 -4 8 4 15 8 15 10 0 2 -7 4 -15 4 -8 0 -15
-4 -15 -10z"/>
<path d="M9904 2908 c-4 -7 -3 -8 4 -4 11 7 17 -6 13 -27 -1 -5 3 -6 9 -2 7 4
7 12 0 26 -12 22 -16 23 -26 7z"/>
<path d="M9028 2893 c7 -3 16 -2 19 1 4 3 -2 6 -13 5 -11 0 -14 -3 -6 -6z"/>
<path d="M9594 2889 c-8 -14 14 -19 25 -6 8 10 7 14 -5 14 -8 0 -17 -4 -20 -8z"/>
<path d="M9065 2880 c-8 -13 5 -13 25 0 13 8 13 10 -2 10 -9 0 -20 -4 -23 -10z"/>
<path d="M6057 2835 c3 -22 7 -42 9 -44 8 -9 2 45 -6 64 -7 14 -8 8 -3 -20z"/>
<path d="M6521 2824 c0 -11 3 -14 6 -6 3 7 2 16 -1 19 -3 4 -6 -2 -5 -13z"/>
<path d="M9413 2783 c9 -2 23 -2 30 0 6 3 -1 5 -18 5 -16 0 -22 -2 -12 -5z"/>
<path d="M6071 2754 c0 -11 3 -14 6 -6 3 7 2 16 -1 19 -3 4 -6 -2 -5 -13z"/>
<path d="M9981 2744 c0 -11 3 -14 6 -6 3 7 2 16 -1 19 -3 4 -6 -2 -5 -13z"/>
<path d="M6496 2709 c-4 -23 -5 -44 -2 -46 2 -2 7 14 11 37 4 23 5 43 2 46 -2
3 -7 -14 -11 -37z"/>
<path d="M9950 2620 c-6 -11 -8 -20 -6 -20 3 0 10 9 16 20 6 11 8 20 6 20 -3
0 -10 -9 -16 -20z"/>
<path d="M7999 2603 c-13 -16 -12 -17 4 -4 16 13 21 21 13 21 -2 0 -10 -8 -17
-17z"/>
<path d="M7582 2580 c0 -14 2 -19 5 -12 2 6 2 18 0 25 -3 6 -5 1 -5 -13z"/>
<path d="M7800 2590 c0 -5 5 -10 11 -10 5 0 7 5 4 10 -3 6 -8 10 -11 10 -2 0
-4 -4 -4 -10z"/>
<path d="M7935 2560 c-3 -5 -1 -10 4 -10 6 0 11 5 11 10 0 6 -2 10 -4 10 -3 0
-8 -4 -11 -10z"/>
<path d="M6483 2515 c0 -27 2 -38 4 -22 2 15 2 37 0 50 -2 12 -4 0 -4 -28z"/>
<path d="M6102 2510 c0 -19 2 -27 5 -17 2 9 2 25 0 35 -3 9 -5 1 -5 -18z"/>
<path d="M9648 2533 c7 -3 16 -2 19 1 4 3 -2 6 -13 5 -11 0 -14 -3 -6 -6z"/>
<path d="M9830 2510 c-8 -5 -10 -10 -5 -10 6 0 17 5 25 10 8 5 11 10 5 10 -5
0 -17 -5 -25 -10z"/>
<path d="M6497 2451 c-4 -18 -7 -43 -6 -55 1 -11 5 -1 10 24 5 25 7 49 6 55
-2 5 -7 -5 -10 -24z"/>
<path d="M7607 2349 c4 -13 8 -18 11 -10 2 7 -1 18 -6 23 -8 8 -9 4 -5 -13z"/>
<path d="M7616 2307 c3 -10 9 -15 12 -12 3 3 0 11 -7 18 -10 9 -11 8 -5 -6z"/>
<path d="M9610 2289 c0 -5 5 -7 10 -4 6 3 10 8 10 11 0 2 -4 4 -10 4 -5 0 -10
-5 -10 -11z"/>
<path d="M7655 2230 c3 -5 8 -10 11 -10 2 0 4 5 4 10 0 6 -5 10 -11 10 -5 0
-7 -4 -4 -10z"/>
<path d="M6157 2213 c-4 -3 -7 -11 -7 -17 0 -6 5 -5 12 2 6 6 9 14 7 17 -3 3
-9 2 -12 -2z"/>
<path d="M9420 2161 c0 -5 5 -13 10 -16 6 -3 10 -2 10 4 0 5 -4 13 -10 16 -5
3 -10 2 -10 -4z"/>
<path d="M8086 2151 c-4 -5 3 -7 14 -4 23 6 26 13 6 13 -8 0 -17 -4 -20 -9z"/>
<path d="M7917 2139 c7 -7 15 -10 18 -7 3 3 -2 9 -12 12 -14 6 -15 5 -6 -5z"/>
<path d="M7973 2143 c9 -2 23 -2 30 0 6 3 -1 5 -18 5 -16 0 -22 -2 -12 -5z"/>
<path d="M9448 2113 c7 -3 16 -2 19 1 4 3 -2 6 -13 5 -11 0 -14 -3 -6 -6z"/>
<path d="M8200 2096 c0 -2 7 -7 16 -10 8 -3 12 -2 9 4 -6 10 -25 14 -25 6z"/>
<path d="M9467 2080 c3 -11 7 -20 8 -20 1 0 5 9 8 20 3 12 0 20 -8 20 -8 0
-11 -8 -8 -20z"/>
<path d="M6197 2083 c-4 -3 -7 -11 -7 -17 0 -6 5 -5 12 2 6 6 9 14 7 17 -3 3
-9 2 -12 -2z"/>
<path d="M7130 2074 c0 -8 5 -12 10 -9 6 4 8 11 5 16 -9 14 -15 11 -15 -7z"/>
<path d="M9269 2033 c12 -18 24 -33 27 -33 9 0 -15 37 -33 51 -12 10 -11 5 6
-18z"/>
<path d="M9451 2024 c0 -11 3 -14 6 -6 3 7 2 16 -1 19 -3 4 -6 -2 -5 -13z"/>
<path d="M9367 1959 c7 -7 15 -10 18 -7 3 3 -2 9 -12 12 -14 6 -15 5 -6 -5z"/>
<path d="M8498 1943 c7 -3 16 -2 19 1 4 3 -2 6 -13 5 -11 0 -14 -3 -6 -6z"/>
<path d="M6250 1925 c0 -8 4 -15 10 -15 5 0 7 7 4 15 -4 8 -8 15 -10 15 -2 0
-4 -7 -4 -15z"/>
<path d="M7211 1894 c0 -11 3 -14 6 -6 3 7 2 16 -1 19 -3 4 -6 -2 -5 -13z"/>
<path d="M8938 1883 c12 -2 30 -2 40 0 9 3 -1 5 -23 4 -22 0 -30 -2 -17 -4z"/>
<path d="M8667 1869 c7 -7 15 -10 18 -7 3 3 -2 9 -12 12 -14 6 -15 5 -6 -5z"/>
<path d="M8828 1863 c6 -2 18 -2 25 0 6 3 1 5 -13 5 -14 0 -19 -2 -12 -5z"/>
<path d="M9300 1840 c-6 -11 -8 -20 -6 -20 3 0 10 9 16 20 6 11 8 20 6 20 -3
0 -10 -9 -16 -20z"/>
<path d="M9163 1783 c9 -2 23 -2 30 0 6 3 -1 5 -18 5 -16 0 -22 -2 -12 -5z"/>
<path d="M6326 1762 c-3 -5 1 -9 9 -9 8 0 12 4 9 9 -3 4 -7 8 -9 8 -2 0 -6 -4
-9 -8z"/>
<path d="M7330 1696 c0 -2 7 -7 16 -10 8 -3 12 -2 9 4 -6 10 -25 14 -25 6z"/>
<path d="M6390 1656 c0 -2 7 -9 15 -16 13 -11 14 -10 9 4 -5 14 -24 23 -24 12z"/>
<path d="M7450 1614 c0 -12 49 -58 55 -52 3 2 -9 17 -25 33 -17 16 -30 25 -30
19z"/>
<path d="M7540 1489 c0 -5 5 -7 10 -4 6 3 10 8 10 11 0 2 -4 4 -10 4 -5 0 -10
-5 -10 -11z"/>
<path d="M7000 1465 c-32 -18 -25 -18 25 0 22 8 31 14 20 14 -11 0 -31 -6 -45
-14z"/>
<path d="M7573 1451 c0 -11 5 -18 9 -15 4 3 5 11 1 19 -7 21 -12 19 -10 -4z"/>
<path d="M6731 1424 c0 -11 3 -14 6 -6 3 7 2 16 -1 19 -3 4 -6 -2 -5 -13z"/>
<path d="M6780 1426 c0 -2 7 -7 16 -10 8 -3 12 -2 9 4 -6 10 -25 14 -25 6z"/>
<path d="M7051 1404 c0 -11 3 -14 6 -6 3 7 2 16 -1 19 -3 4 -6 -2 -5 -13z"/>
<path d="M7060 1349 c0 -5 5 -7 10 -4 6 3 10 8 10 11 0 2 -4 4 -10 4 -5 0 -10
-5 -10 -11z"/>
<path d="M7602 1330 c0 -14 2 -19 5 -12 2 6 2 18 0 25 -3 6 -5 1 -5 -13z"/>
<path d="M6736 1315 c4 -16 11 -34 16 -40 7 -7 8 -1 3 15 -12 40 -26 59 -19
25z"/>
<path d="M6568 1259 c13 -5 30 -5 38 -1 9 5 1 8 -23 9 -33 1 -35 0 -15 -8z"/>
<path d="M6890 1240 c6 -11 13 -20 16 -20 2 0 0 9 -6 20 -6 11 -13 20 -16 20
-2 0 0 -9 6 -20z"/>
<path d="M7116 1247 c3 -10 9 -15 12 -12 3 3 0 11 -7 18 -10 9 -11 8 -5 -6z"/>
<path d="M6665 1232 c15 -15 59 -22 74 -13 10 7 7 9 -10 8 -13 -1 -35 3 -49 7
-16 5 -22 5 -15 -2z"/>
<path d="M7542 1204 c-7 -15 -17 -22 -24 -18 -7 5 -8 3 -3 -6 6 -10 12 -8 27
9 10 13 18 27 18 32 0 16 -6 10 -18 -17z"/>
<path d="M6770 1200 c0 -5 5 -10 11 -10 5 0 7 5 4 10 -3 6 -8 10 -11 10 -2 0
-4 -4 -4 -10z"/>
<path d="M7165 1170 c3 -5 11 -10 16 -10 6 0 7 5 4 10 -3 6 -11 10 -16 10 -6
0 -7 -4 -4 -10z"/>
<path d="M6930 1156 c0 -2 7 -7 16 -10 8 -3 12 -2 9 4 -6 10 -25 14 -25 6z"/>
<path d="M7218 1138 c5 -5 16 -8 23 -6 8 3 3 7 -10 11 -17 4 -21 3 -13 -5z"/>
<path d="M7430 1130 c-12 -7 -10 -9 7 -7 12 0 19 5 17 9 -6 10 -6 10 -24 -2z"/>
<path d="M7288 1103 c6 -2 18 -2 25 0 6 3 1 5 -13 5 -14 0 -19 -2 -12 -5z"/>
</g>
</svg>
