<?xml version="1.0" standalone="no"?>
<!DOCTYPE svg PUBLIC "-//W3C//DTD SVG 20010904//EN"
 "http://www.w3.org/TR/2001/REC-SVG-20010904/DTD/svg10.dtd">
<svg version="1.0" xmlns="http://www.w3.org/2000/svg"
 width="293.000000pt" height="247.000000pt" viewBox="0 0 293.000000 247.000000"
 preserveAspectRatio="xMidYMid meet">

<g transform="translate(0.000000,247.000000) scale(0.100000,-0.100000)"
fill="#000000" stroke="none">
<path d="M1910 2302 c-91 -37 -198 -119 -333 -256 l-79 -79 -96 -5 c-96 -4
-98 -4 -139 27 -50 36 -53 37 -53 12 0 -12 -9 -21 -25 -25 -32 -8 -32 -21 1
-42 17 -12 22 -20 15 -27 -14 -14 -14 -30 -1 -22 15 9 12 0 -10 -38 -13 -22
-31 -37 -48 -40 -21 -4 -33 -17 -47 -47 -10 -23 -31 -50 -46 -60 -66 -48 -75
-143 -19 -230 37 -58 38 -70 1 -70 -16 0 -48 -7 -71 -15 -24 -8 -44 -14 -45
-13 -24 43 -41 59 -75 69 -35 11 -42 10 -59 -5 -15 -14 -24 -15 -40 -7 -28 15
-46 14 -94 -8 -23 -10 -77 -33 -120 -51 -95 -39 -128 -66 -156 -125 -40 -84
-24 -119 59 -130 42 -6 50 -10 44 -24 -23 -56 -26 -70 -20 -97 4 -16 28 -48
53 -72 25 -24 42 -46 38 -50 -3 -3 -12 -2 -19 3 -54 41 -114 75 -132 75 -36 0
-85 -49 -115 -115 -15 -33 -48 -80 -73 -105 -60 -58 -73 -103 -51 -171 30 -89
93 -105 200 -52 131 66 293 101 403 87 110 -13 222 -71 222 -114 0 -11 -12
-22 -30 -29 -26 -9 -30 -15 -30 -49 0 -26 8 -51 25 -73 14 -19 41 -59 61 -89
47 -71 59 -80 110 -80 48 0 89 28 114 77 8 15 27 44 43 64 15 20 36 58 47 85
l18 49 63 -2 c34 -1 65 -5 70 -10 4 -4 4 -25 0 -45 -11 -46 0 -62 54 -78 22
-6 63 -28 92 -47 56 -37 73 -37 73 3 0 30 14 30 65 -1 49 -30 85 -32 92 -5 3
10 13 22 23 25 21 7 46 42 55 78 6 21 3 26 -12 25 -10 0 -27 3 -38 7 -14 5
-10 -1 10 -18 27 -23 28 -26 11 -33 -10 -4 -27 -2 -37 4 -30 19 -36 13 -10 -9
18 -14 21 -23 13 -31 -8 -8 -18 -6 -37 6 -15 10 -29 16 -31 13 -3 -2 7 -12 21
-21 14 -9 25 -23 25 -30 0 -25 -33 -28 -62 -6 -24 18 -111 60 -123 60 -2 0 4
-13 13 -30 13 -22 14 -32 5 -41 -9 -9 -19 -6 -43 11 -17 12 -57 32 -88 44 -46
18 -58 27 -60 47 -3 24 -2 24 72 24 63 0 78 3 98 23 22 20 34 22 124 22 68 0
106 -4 119 -13 15 -12 21 -11 37 5 10 10 31 18 48 18 60 0 259 49 359 88 239
94 376 215 416 369 28 103 -2 191 -94 276 -54 50 -166 116 -221 132 -14 4 18
-15 69 -41 128 -65 213 -146 231 -223 35 -147 -39 -290 -208 -401 -166 -109
-358 -169 -611 -191 -167 -14 -213 -6 -230 43 -20 57 -12 348 10 348 4 0 5
-17 1 -38 -4 -20 -7 -96 -7 -168 0 -116 2 -135 19 -153 28 -31 39 -25 20 11
-23 44 -14 95 35 210 46 108 49 128 24 129 -10 1 20 7 66 15 102 17 188 54
259 112 53 43 69 46 30 5 -26 -28 -22 -28 92 -8 136 25 324 31 395 12 33 -8
68 -19 78 -23 17 -6 18 -3 11 32 -11 61 -48 126 -97 171 -70 64 -242 144 -364
168 -28 6 -33 4 -34 -12 0 -16 -1 -16 -9 2 -6 17 -9 15 -13 -15 -3 -19 -4 31
-1 112 2 81 11 200 21 265 22 160 24 426 2 473 l-15 35 0 -80 c0 -62 -7 -101
-32 -175 -75 -229 -115 -468 -110 -661 l3 -112 60 46 c69 52 90 52 30 1 -80
-69 -204 -114 -356 -129 -105 -11 -109 -8 -109 83 0 54 -8 98 -24 145 l-23 67
34 21 c39 24 63 56 63 82 0 21 50 140 57 134 2 -2 -6 -26 -16 -53 -11 -27 -25
-68 -31 -90 -8 -32 -20 -48 -51 -68 -28 -19 -39 -33 -36 -44 3 -9 12 -34 20
-56 l14 -38 7 28 c4 16 25 56 46 89 21 33 46 83 55 110 21 62 31 211 16 245
-10 23 -10 22 -6 -10 3 -19 1 -51 -4 -70 -8 -31 -8 -29 -9 27 -1 137 -100 241
-264 277 -16 4 -28 11 -28 16 0 18 106 135 185 203 105 91 222 149 301 150
100 1 192 -53 235 -135 26 -51 34 -207 20 -373 -6 -71 -13 -159 -16 -195 -8
-121 12 15 31 208 30 307 -2 410 -156 487 -51 26 -154 30 -210 7z m-602 -427
c16 -13 35 -38 42 -54 13 -33 33 -40 115 -40 43 0 54 -4 78 -31 45 -50 33
-115 -37 -199 -24 -29 -35 -50 -30 -60 17 -42 15 -97 -5 -129 -29 -45 -71 -68
-176 -93 -81 -19 -94 -20 -120 -8 -30 14 -34 21 -80 119 -14 30 -39 76 -55
101 -23 34 -31 58 -32 93 -1 59 21 91 87 128 55 30 77 55 95 112 13 41 53 86
76 86 7 0 26 -11 42 -25z m-148 -97 c0 -14 -40 -58 -52 -58 -13 0 -9 24 8 48
16 23 44 30 44 10z m570 -268 c19 -12 7 -22 -51 -44 -27 -10 -51 -26 -59 -41
-17 -31 -30 -32 -30 -2 0 24 23 64 50 84 18 15 69 16 90 3z m-880 -83 c86 -37
56 -132 -35 -115 -14 3 -25 2 -25 -1 0 -3 -23 -14 -50 -24 -61 -22 -114 -67
-141 -118 -23 -45 -23 -49 -6 -49 11 0 11 -11 1 -62 -36 -169 9 -181 113 -31
24 36 45 54 64 58 43 10 39 41 -6 49 -29 6 -35 11 -35 31 0 30 11 32 35 5 21
-24 35 -26 35 -6 0 8 -10 16 -22 18 -13 2 -24 11 -26 21 -5 25 21 78 35 72 7
-2 13 0 13 5 0 5 16 12 37 16 53 10 63 -9 63 -124 0 -77 -6 -113 -30 -191 -16
-53 -36 -105 -43 -116 -14 -18 -15 -18 -27 5 -9 16 -11 46 -6 97 3 42 2 73 -3
73 -17 0 -50 -55 -63 -104 l-12 -46 -75 0 c-84 0 -120 17 -159 75 -25 35 -28
66 -10 98 10 20 13 17 27 -37 9 -34 22 -61 31 -63 11 -3 12 -2 3 4 -19 13 -36
109 -31 177 2 36 13 80 27 108 27 57 102 143 142 164 35 17 79 9 79 -15 0 -10
7 -26 16 -37 15 -18 15 -18 9 4 -7 23 17 72 34 72 5 0 23 -6 41 -13z m1365
-397 c-8 -16 -21 -32 -27 -36 -7 -5 -4 5 7 21 16 25 19 46 18 130 l-1 100 9
-94 c7 -75 6 -99 -6 -121z m-1547 121 c15 -13 20 -20 12 -16 -29 15 -50 38
-49 54 0 14 1 14 6 1 3 -8 17 -26 31 -39z m112 -41 c0 -5 -12 -10 -27 -10 -22
0 -25 2 -13 10 20 13 40 13 40 0z m-380 -180 c0 -5 -21 -41 -46 -81 -25 -39
-42 -74 -38 -78 5 -5 28 -15 51 -24 l42 -16 27 47 c50 88 74 104 74 49 0 -41
-49 -113 -86 -127 -14 -6 -39 -10 -56 -10 -32 0 -88 -28 -88 -44 0 -5 9 -1 19
8 11 10 46 22 78 27 32 4 72 11 89 15 61 12 52 -34 -11 -60 -17 -7 -58 -38
-90 -68 -67 -61 -94 -78 -125 -78 -29 0 -70 44 -70 74 0 39 145 320 181 350
32 27 49 33 49 16z m45 -10 c3 -5 -2 -22 -11 -37 l-16 -28 24 28 c22 25 26 26
38 12 11 -13 10 -18 -2 -33 -8 -9 -28 -39 -43 -65 -18 -32 -33 -47 -44 -44
-17 3 -17 8 -6 42 7 17 5 17 -9 -2 -19 -25 -46 -31 -46 -10 0 17 88 147 100
147 5 0 12 -4 15 -10z m640 -357 c10 -72 13 -74 14 -10 1 61 10 70 35 35 11
-15 16 -45 16 -91 0 -60 -2 -68 -17 -65 -10 2 -21 16 -24 33 -5 22 -7 24 -8 8
0 -12 -6 -25 -12 -29 -16 -9 10 -24 44 -24 27 0 27 1 27 65 0 100 31 83 55
-31 36 -168 5 -266 -89 -281 -41 -6 -67 11 -93 62 -9 16 -35 51 -59 77 -35 37
-44 55 -44 82 0 46 18 55 46 23 12 -14 24 -24 26 -21 3 2 1 34 -4 71 -10 71
-4 133 12 133 6 0 10 -1 11 -2 0 -2 6 -36 12 -77 8 -49 17 -76 27 -79 12 -4
13 -2 4 9 -14 17 -29 133 -19 148 16 26 34 9 40 -36z"/>
<path d="M1191 1765 c-17 -20 -31 -41 -31 -48 0 -16 58 -77 72 -77 7 0 22 -10
35 -22 13 -12 26 -18 30 -14 5 4 -7 21 -25 37 l-33 30 21 26 c11 14 20 35 20
46 0 15 -7 7 -22 -23 -13 -24 -29 -46 -36 -48 -11 -3 -11 0 -1 16 10 17 10 23
0 36 -7 9 -17 13 -22 10 -14 -8 -10 9 6 30 10 13 22 17 42 13 26 -5 26 -4 8 9
-26 19 -29 19 -64 -21z"/>
<path d="M1400 1672 l-23 -18 35 4 c45 5 66 -18 49 -54 -15 -34 -13 -43 4 -20
20 27 19 70 -3 89 -24 22 -35 21 -62 -1z"/>
<path d="M1352 1628 c-19 -19 -15 -66 7 -78 35 -18 46 -12 46 26 0 42 -32 73
-53 52z m28 -18 c0 -5 -4 -10 -10 -10 -5 0 -10 5 -10 10 0 6 5 10 10 10 6 0
10 -4 10 -10z"/>
<path d="M1212 1609 c2 -16 11 -25 26 -27 12 -2 22 1 22 7 0 6 -4 11 -9 11 -5
0 -17 7 -26 17 -16 15 -17 15 -13 -8z"/>
<path d="M1064 1590 c-13 -13 3 -53 43 -108 15 -19 28 -57 34 -95 18 -112 50
-131 135 -78 25 17 60 33 78 37 17 3 37 11 44 16 20 17 14 53 -14 79 l-26 24
7 -24 7 -24 -70 5 c-52 4 -83 12 -116 32 -52 30 -99 84 -106 121 -4 20 -8 23
-16 15z m201 -246 c14 -6 13 -8 -5 -21 -11 -8 -25 -11 -32 -7 -6 4 -8 3 -4 -4
3 -6 2 -13 -4 -17 -11 -7 -14 37 -3 48 8 9 27 9 48 1z"/>
<path d="M777 1231 c-17 -6 -18 -8 -3 -20 18 -15 29 -10 24 12 -2 9 -9 12 -21
8z"/>
<path d="M1062 350 c20 -17 40 -39 43 -50 4 -11 11 -20 16 -20 13 0 -16 55
-43 80 -12 11 -29 20 -37 20 -9 0 -1 -12 21 -30z"/>
<path d="M1201 265 c-2 -15 -67 -57 -103 -65 -28 -6 -30 -8 -14 -15 45 -19
138 38 123 76 -3 8 -6 10 -6 4z"/>
<path d="M1486 2005 c-11 -8 -15 -15 -9 -15 6 0 16 7 23 15 16 19 11 19 -14 0z"/>
<path d="M1152 1859 c-7 -12 -11 -24 -7 -27 7 -8 25 17 25 36 0 17 -3 15 -18
-9z"/>
<path d="M2232 1500 c0 -19 2 -27 5 -17 2 9 2 25 0 35 -3 9 -5 1 -5 -18z"/>
<path d="M971 1440 c-13 -11 -29 -20 -37 -20 -8 0 -14 -5 -14 -11 0 -7 8 -9
23 -4 12 4 37 9 55 12 34 6 39 12 20 31 -16 16 -19 15 -47 -8z"/>
<path d="M2221 1383 c-1 -35 2 -43 17 -43 9 0 28 -3 42 -5 14 -3 10 0 -10 8
-28 11 -36 21 -41 48 -6 34 -6 34 -8 -8z"/>
<path d="M2254 1396 c-8 -20 -1 -29 20 -24 13 3 13 6 1 22 -13 17 -15 18 -21
2z"/>
<path d="M2318 1323 c7 -3 16 -2 19 1 4 3 -2 6 -13 5 -11 0 -14 -3 -6 -6z"/>
<path d="M2358 1313 c7 -3 16 -2 19 1 4 3 -2 6 -13 5 -11 0 -14 -3 -6 -6z"/>
<path d="M1712 1153 c0 -62 3 -83 12 -83 10 0 11 12 5 53 -4 28 -10 66 -12 82
-2 17 -4 -7 -5 -52z"/>
<path d="M410 1083 c0 -5 4 -13 8 -20 6 -9 11 -7 20 7 11 17 10 20 -8 20 -11
0 -20 -3 -20 -7z"/>
<path d="M405 991 c-3 -6 4 -15 15 -21 22 -12 23 -10 14 14 -7 18 -20 21 -29
7z"/>
<path d="M888 528 c12 -6 25 -22 28 -35 6 -24 24 -27 32 -5 3 11 -54 52 -73
51 -5 0 0 -5 13 -11z"/>
<path d="M1350 404 c0 -16 8 -19 50 -20 36 -1 50 3 50 12 0 8 -8 14 -19 14
-10 0 -33 3 -50 6 -26 5 -31 3 -31 -12z"/>
<path d="M1950 384 c0 -14 3 -14 15 -4 8 7 15 14 15 16 0 2 -7 4 -15 4 -8 0
-15 -7 -15 -16z"/>
<path d="M1710 237 c0 -7 9 -13 19 -13 15 0 17 3 9 13 -13 17 -28 17 -28 0z"/>
</g>
</svg>
